<svg {% if include.class %}class="{{ include.class }}"{% endif %}{% if include.id %}id="{{ include.id }}"{% endif %} xmlns="http://www.w3.org/2000/svg" viewBox="0 0 280 280">
  <path d="M253 4H27a16 16 0 00-16 16v204a16 16 0 0016 16h93v-10H27a6 6 0 01-6-6v-6.2c1.9.8 3.9 1.2 6 1.2h93v-10H27a6 6 0 01-6-6V20a6 6 0 016-6h226a6 6 0 016 6v183a6 6 0 01-6 6h-31v10h31c2.1 0 4.1-.4 6-1.2v6.2a6 6 0 01-6 6h-31v10h31a16 16 0 0016-16V20a16 16 0 00-16-16z"/>
  <path d="M263 39H14v10h249V39zM90 83H43v10h47V83zM90 104.7H43v10h47v-10zM90 126.3H43v10h47v-10zM90 148H43v10h47v-10zM225.6 176.3L184.3 114c-3.2-4.8-8-7.2-12.8-7.2-4.8 0-9.7 2.4-12.8 7.2l-42.2 62.2a15 15 0 00.4 16.3l11.2 14.9-.2 1.6v14a8 8 0 008 8h3v37a8 8 0 008 8h48a8 8 0 008-8v-37h3a8 8 0 008-8v-14l-.2-1.5 11.2-14.8a15 15 0 00.7-16.4zM193 266h-44v-35h44v35zm11-45h-66v-10h66v10zm13.1-34.4L206.2 201H136h-.1l-11-14.5c-.7-1-.8-3.6-.1-4.6l42.2-62.2c1.1-1.7 2.7-2.7 4.5-2.7 1.8 0 3.4 1 4.5 2.7l41.3 62.3c.6.9.5 3.6-.2 4.6z"/>
  <path d="M166 113h10v52h-10z"/>
  <path d="M171 168c3.3 0 6 2.7 6 6s-2.7 6-6 6-6-2.7-6-6 2.7-6 6-6m0-10c-8.8 0-16 7.2-16 16s7.2 16 16 16 16-7.2 16-16-7.2-16-16-16z"/>
  <path d="M171.5 110.9c3.8 0 7.2 2 9.5 5.4l13.7 20.7H205a5 5 0 005-5v-23a5 5 0 00-5-5h-66a5 5 0 00-5 5v23a5 5 0 005 5h8.9l14-20.7c2.4-3.5 5.8-5.4 9.6-5.4z" opacity=".5"/>
  <path d="M171.5 110.9c3.8 0 7.2 2 9.5 5.4l21 31.7h19V93h-98v55h17.5l21.5-31.7c2.3-3.5 5.7-5.4 9.5-5.4z" fill="none"/>
  <path d="M222 83H122c-5 0-9 4-9 9v57c0 5 4 9 9 9h11.7l6.8-10H123V93h98v55h-19l6.6 10H222c5 0 9-4 9-9V92c0-5-4-9-9-9z"/>
</svg>
