<svg {% if include.class %}class="{{ include.class }}"{% endif %}{% if include.id %}id="{{ include.id }}"{% endif %} xmlns="http://www.w3.org/2000/svg" viewBox="0 0 280 280">
  <path d="M258 10.1a12 12 0 0112 12v160a12 12 0 01-12 12H22a12 12 0 01-12-12v-160a12 12 0 0112-12h236m0-10H22a22 22 0 00-22 22v160a22 22 0 0022 22h236a22 22 0 0022-22v-160a22 22 0 00-22-22z"/>
  <path d="M247.8 22.2h-217a10 10 0 00-10 10v130.1a10 10 0 0010 10h217a10 10 0 0010-10V32.2a10 10 0 00-10-10zm0 140.1h-217V35.2a3 3 0 013-3h214v130.1zM215.8 178.4h-22v10h22v-10zM247.8 177.9h-22v10h22v-10z"/>
  <path d="M211.2 112.3h-6V107a15 15 0 00-15-15h-41a5 5 0 01-5-5v-4.7h6c5 0 9-4 9-9v-22c0-5-4-9-9-9h-22c-5 0-9 4-9 9v22c0 5 4 9 9 9h6V87a5 5 0 01-5 5h-41a15 15 0 00-15 15v5.3h-6c-5 0-9 4-9 9v22c0 5 4 9 9 9h22c5 0 9-4 9-9v-22c0-5-4-9-9-9h-6V107a5 5 0 015-5h41a5 5 0 015 5v5.3h-6c-5 0-9 4-9 9v22c0 5 4 9 9 9h22c5 0 9-4 9-9v-22c0-5-4-9-9-9h-6V107a5 5 0 015-5h41a5 5 0 015 5v5.3h-6c-5 0-9 4-9 9v22c0 5 4 9 9 9h22c5 0 9-4 9-9v-22c0-5-4-9-9-9zm-83-61h22v22h-22v-22zm-39 92h-22v-22h22v22zm61 0h-22v-22h22v22zm61 0h-22v-22h22v22z"/>
  <path opacity=".5" d="M63.8 117.9h29v29h-29zM123.8 117.9h29v29h-29zM123.8 47.9h29v29h-29zM185.8 117.9h29v29h-29z"/>
  <path d="M200.8 247.7h-24.5l-.5-.1a4 4 0 01-4-4v-44.8h-10v44.8c0 1.4.2 2.7.6 4l-.6.1h-44.2l-.4-.1c.4-1.3.6-2.6.6-4v-44.8h-10v44.8a4 4 0 01-4 4l-.5.1H78.8a14 14 0 00-14 14v4.3a14 14 0 0014 14h122a14 14 0 0014-14v-4.2a14 14 0 00-14-14.1zm4 15.3v3a4 4 0 01-4 4h-122a4 4 0 01-4-4v-4.3a4 4 0 014-4h122a4 4 0 014 4v1.3z"/>
</svg>
