<svg {% if include.class %}class="{{ include.class }}"{% endif %} {% if include.id %}id="{{ include.id }}"{% endif %} xmlns="http://www.w3.org/2000/svg" viewBox="0 0 20 20">
    <path fill="currentColor" d="M14.9992115,7.00721669 L11.9993166,7.00721669 L11.9993166,1.01265823 L7.99945666,1.01265823 L7.99945666,7.00721669 L4.99956172,7.00721669 L9.99938663,12.0026821 L14.9992115,7.00721669 Z M19.3370596,13.5332927 C19.127067,13.3094958 17.726116,11.8118553 17.32613,11.4212099 C17.0611393,11.1624448 16.6821526,11.003589 16.2841665,11.003589 L14.5272281,11.003589 L17.5911208,13.9948737 L14.0472449,13.9948737 C13.9452484,13.9948737 13.8532517,14.0468265 13.8072533,14.127753 L12.9912818,15.9990544 L7.0074914,15.9990544 L6.19151998,14.127753 C6.14552159,14.0468265 6.05252485,13.9948737 5.95152838,13.9948737 L2.40765249,13.9948737 L5.47054523,11.003589 L3.71460672,11.003589 C3.31762062,11.003589 2.93863389,11.1624448 2.67264321,11.4212099 C2.27265722,11.8128544 0.871706278,13.3104949 0.661713632,13.5332927 C0.172730757,14.0538202 -0.0962598233,14.4684438 0.0317356943,14.9809785 L0.592716049,18.0521907 C0.720711566,18.5657245 1.28369185,18.9873418 1.84467221,18.9873418 L18.156101,18.9873418 C18.7170813,18.9873418 19.2800616,18.5657245 19.4080571,18.0521907 L19.9690375,14.9809785 C20.0950331,14.4684438 19.8270425,14.0538202 19.3370596,13.5332927 Z"/>
</svg>