<svg {% if include.class %}class="{{ include.class }}"{% endif %} {% if include.id %}id="{{ include.id }}"{% endif %} viewBox="0 0 100 100" xmlns="http://www.w3.org/2000/svg">
    <path fill="currentColor" d="M95.5 6c.28 0 .5.22.5.5v75a.5.5 0 01-.5.5H52v8h15.5c.28 0 .5.22.5.5v3a.5.5 0 01-.5.5h-35a.5.5 0 01-.5-.5v-3c0-.28.22-.5.5-.5H48v-8H4.5a.5.5 0 01-.5-.5v-75c0-.28.22-.5.5-.5h91zM92 66H8v12h84V66zm0-56H8v52h84V10z"/>
    <path fill="currentColor" d="M46 74a2 2 0 110-4h8a2 2 0 110 4h-8z"/>
    <rect fill="currentColor" x="44" y="70" width="12" height="4" rx=".5"/>
    <path fill="currentColor" d="M26 29.97L27.7 27 26 24.03 24.3 27l1.7 2.97zM20.26 26l4-7a2 2 0 013.48 0l4 7a2 2 0 010 1.98l-4 7a2 2 0 01-3.48 0l-4-7a2 2 0 010-1.98zM38 49.97L39.7 47 38 44.03 36.3 47l1.7 2.97zM32.26 46l4-7a2 2 0 013.48 0l4 7a2 2 0 010 1.98l-4 7a2 2 0 01-3.48 0l-4-7a2 2 0 010-1.98zM66 49.97L67.7 47 66 44.03 64.3 47l1.7 2.97zM60.26 46l4-7a2 2 0 013.48 0l4 7a2 2 0 010 1.98l-4 7a2 2 0 01-3.48 0l-4-7a2 2 0 010-1.98zm-8.43-16.04l1.7-2.97-1.7-2.97-1.7 2.97 1.7 2.97zM46.1 26l4-7a2 2 0 013.47 0l4 7a2 2 0 010 1.98l-4 7a2 2 0 01-3.47 0l-4-7a2 2 0 010-1.98zm16.5-5.43l2-2a2 2 0 013.42 1.41v14h-4V24a2 2 0 01-1.42-3.41zm3.42-.59a2 2 0 012 2v12c0 2.67-4 2.67-4 0V20h2zm-31.42.59l2-2a2 2 0 013.42 1.41v14h-4V24a2 2 0 01-1.42-3.41zm3.42-.59a2 2 0 012 2v12c0 2.67-4 2.67-4 0V20h2zm36.58.59l2-2a2 2 0 013.42 1.41v14h-4V24a2 2 0 01-1.42-3.41zm3.42-.59a2 2 0 012 2v12c0 2.67-4 2.67-4 0V20h2zM74.6 40.58l2-2a2 2 0 013.42 1.41v14h-4V44a2 2 0 01-1.42-3.41zm3.42-.59a2 2 0 012 2v12c0 2.67-4 2.67-4 0V40h2zm-29.58.59l2-2a2 2 0 013.42 1.41v14h-4V44a2 2 0 01-1.42-3.41zm3.42-.59a2 2 0 012 2v12c0 2.67-4 2.67-4 0V40h2zm-29.42.59l2-2a2 2 0 013.42 1.41v14h-4V44a2 2 0 01-1.42-3.41zm3.42-.59a2 2 0 012 2v12c0 2.67-4 2.67-4 0V40h2z"/>
</svg>
