<svg {% if include.class %}class="{{ include.class }}"{% endif %} {% if include.id %}id="{{ include.id }}"{% endif %} viewBox="0 0 100 100" xmlns="http://www.w3.org/2000/svg">
    <path fill="currentColor" d="M95.5 4c.3 0 .5.2.5.5v91c0 .3-.2.5-.5.5h-91a.5.5 0 01-.5-.5v-91c0-.3.2-.5.5-.5h91zM92 24H8v68h84V24zm0-16H8v12h84V8z"/>
    <path fill="currentColor" d="M46.7 51.9a2 2 0 11-1.4-3.8l32-12a2 2 0 011.4 3.8l-32 12z"/>
    <rect fill="currentColor" x="36" y="44" width="12" height="12" rx=".5"/>
    <rect fill="currentColor" x="76" y="32" width="12" height="12" rx=".5"/>
    <rect fill="currentColor" x="12" y="32" width="16" height="40" rx=".5"/>
    <path fill="currentColor" d="M64 60c.5 0 1 .2 1.4.6l3.4 3.4H82a2 2 0 012 2v16a2 2 0 01-2 2H58a2 2 0 01-2-2V62c0-1.1.9-2 2-2h6zm-.8 4H60v16h20V68H68a2 2 0 01-1.4-.6L63.2 64zM14 16a2 2 0 110-4h4a2 2 0 110 4h-4zm12 0a2 2 0 110-4h4a2 2 0 110 4h-4z"/>
    <rect fill="currentColor" x="24" y="12" width="8" height="4" rx=".5"/>
    <rect fill="currentColor" x="12" y="12" width="8" height="4" rx=".5"/>
</svg>
