<svg width="180px" height="180px" viewBox="0 0 180 180" xmlns="http://www.w3.org/2000/svg">
    <rect fill="#000" width="180" height="180"></rect>
    <path fill="#FFF" d="M82.0253165,52.4050633 L42.1518987,52.4050633 L42.1518987,64.9367089 L67.2151899,64.9367089 L67.2151899,109.359114 L67.2018237,109.366182 C67.2107013,109.555242 67.2151899,109.745452 67.2151899,109.936709 C67.2151899,116.543153 61.8596087,121.898734 55.2531646,121.898734 C48.6467204,121.898734 43.2911392,116.543153 43.2911392,109.936709 L43.2944932,109.650622 L43.2944932,109.650622 L43.3045054,109.366182 L27.3417722,109.367089 C27.3417722,123.209162 39.5831005,134.43038 54.6835443,134.43038 C69.6329837,134.43038 81.780204,123.432464 82.0216535,109.781556 L82.0253165,109.367089 L82.0253165,52.4050633 Z"></path>
    <polygon fill="#FFF" points="152.658228 52.4050633 88.8607595 52.4050633 88.8607595 64.9367089 113.924051 64.9367089 113.924051 133.291139 127.594937 133.291139 127.594937 64.9367089 152.658228 64.9367089"></polygon>
</svg>